<svg width="28" height="18" viewBox="0 0 28 18" fill="none" xmlns="http://www.w3.org/2000/svg">
<path d="M2.04878 0C1.64606 0 1.27642 0.12098 0.960366 0.320122L13.0823 10.5747C13.6372 11.0447 14.3851 11.0446 14.939 10.5747L27.0396 0.320122C26.7236 0.12098 26.3539 0 25.9512 0H2.04878ZM0.117395 1.3765C0.0443218 1.58753 0 1.81232 0 2.04878V15.7073C0 16.1187 0.123644 16.4968 0.33081 16.8171L9.0061 8.91008L0.117395 1.3765ZM27.8826 1.3765L19.0152 8.89939L27.6692 16.8171C27.8764 16.4968 28 16.1187 28 15.7073V2.04878C28 1.81232 27.9557 1.58753 27.8826 1.3765ZM17.9695 9.79573L15.814 11.6204C14.7715 12.5049 13.2393 12.5036 12.1967 11.6204L10.0518 9.80642L1.44057 17.6601C1.63325 17.7198 1.83598 17.7561 2.04878 17.7561H25.9512C26.164 17.7561 26.3667 17.7198 26.5594 17.6601L17.9695 9.79573Z" fill="#0B7572"/>
</svg>
