<svg width="92" height="92" viewBox="0 0 92 92" fill="none" xmlns="http://www.w3.org/2000/svg">
<circle cx="46" cy="46" r="46" fill="#E9E9EC"/>
<path d="M33.7563 57.3559L54.3365 65.9555V45.0078L33.7563 37.3638V57.3559Z" fill="#0B7572"/>
<path d="M70.139 46.404L64.406 48.462V42.6555L56.8354 45.3015V65.9552L78.1506 57.3556V37.731L70.139 40.5975V46.404ZM63.3035 61.2511L62.4215 61.6186V56.9881L63.3035 56.6941V61.2511ZM64.847 60.6631L63.965 61.0306V56.4001L64.847 56.1061V60.6631ZM67.934 59.4136L67.052 59.7076V55.1506L67.934 54.8566V59.4136ZM69.4775 58.7521L68.5955 59.1196V54.6361L69.4775 54.3421V58.7521ZM72.5646 53.0926L73.4466 52.7986V57.1351L72.5646 57.5026V53.0926ZM70.8006 53.7541L71.6826 53.4601V57.8701L70.8006 58.2376V53.7541Z" fill="#0B7572"/>
<path d="M70.1391 37.7311L78.1507 34.7911L55.9535 27L48.824 29.499L70.1391 37.5841V37.7311Z" fill="#0B7572"/>
<path d="M42.5029 31.704L33.7563 34.791L55.9535 42.8761L64.3326 39.8625L42.5029 31.704Z" fill="#0B7572"/>
<path d="M12 55.4446H30.2281V51.7695H13.6905L12 55.4446Z" fill="#0B7572"/>
<path d="M15.0137 48.9765H30.2283V45.3015H16.7042L15.0137 48.9765Z" fill="#0B7572"/>
<path d="M18.0271 42.2883V42.5823H30.2282V38.9072H19.6441L18.0271 42.2883Z" fill="#0B7572"/>
</svg>
