<svg width="22" height="22" viewBox="0 0 22 22" fill="none" xmlns="http://www.w3.org/2000/svg">
<path d="M16.0448 0H5.9552C2.67145 0 0 2.67145 0 5.9552V16.045C0 19.3286 2.67145 22 5.9552 22H16.045C19.3286 22 22 19.3286 22 16.045V5.9552C22 2.67145 19.3286 0 16.0448 0V0ZM11 17.0155C7.68301 17.0155 4.98454 14.317 4.98454 11C4.98454 7.68301 7.68301 4.98454 11 4.98454C14.317 4.98454 17.0155 7.68301 17.0155 11C17.0155 14.317 14.317 17.0155 11 17.0155ZM17.1593 6.40318C16.1791 6.40318 15.3818 5.60591 15.3818 4.62569C15.3818 3.64546 16.1791 2.84802 17.1593 2.84802C18.1395 2.84802 18.937 3.64546 18.937 4.62569C18.937 5.60591 18.1395 6.40318 17.1593 6.40318Z" fill="#BFBFC7"/>
<path d="M10.9999 7.3335C8.97819 7.3335 7.33325 8.9783 7.33325 11.0001C7.33325 13.0218 8.97819 14.6667 10.9999 14.6667C13.0217 14.6667 14.6665 13.0218 14.6665 11.0001C14.6665 8.9783 13.0217 7.3335 10.9999 7.3335Z" fill="#BFBFC7"/>
<path d="M17.1591 4.1377C16.8903 4.1377 16.6714 4.35657 16.6714 4.62546C16.6714 4.89435 16.8903 5.11322 17.1591 5.11322C17.4282 5.11322 17.6471 4.89452 17.6471 4.62546C17.6471 4.3564 17.4282 4.1377 17.1591 4.1377Z" fill="#BFBFC7"/>
</svg>
