<svg width="23" height="23" viewBox="0 0 23 23" fill="none" xmlns="http://www.w3.org/2000/svg">
<path d="M22.9943 22.9999V22.999H23V14.7016C23 10.6425 22.1173 7.51562 17.3242 7.51562C15.02 7.51562 13.4737 8.76749 12.8425 9.95431H12.7758V7.89458H8.2312V22.999H12.9634V15.5198C12.9634 13.5506 13.3404 11.6464 15.8036 11.6464C18.2307 11.6464 18.2668 13.8937 18.2668 15.6462V22.9999H22.9943Z" fill="#BFBFC7"/>
<path d="M0.377197 7.89453H5.11509V22.9989H0.377197V7.89453Z" fill="#BFBFC7"/>
<path d="M2.74409 0C1.22922 0 0 1.21699 0 2.71678C0 4.21657 1.22922 5.45901 2.74409 5.45901C4.25896 5.45901 5.48818 4.21657 5.48818 2.71678C5.48723 1.21699 4.25801 0 2.74409 0V0Z" fill="#BFBFC7"/>
</svg>
