<svg width="28" height="28" viewBox="0 0 28 28" fill="none" xmlns="http://www.w3.org/2000/svg">
<path d="M27.009 16.3375C26.9999 16.3868 26.9845 16.2929 27.009 16.3375C27.1534 15.5487 27.2292 14.7417 27.2292 13.9348C27.2292 12.1456 26.8799 10.4101 26.1895 8.77594C25.5233 7.19765 24.5704 5.78022 23.3555 4.56322C22.1425 3.34606 20.7274 2.39099 19.1536 1.72339C17.5241 1.03215 15.7926 0.68182 14.0079 0.68182C13.1667 0.68182 12.3242 0.760965 11.5042 0.918915C11.5025 0.919257 11.498 0.919771 11.498 0.919771C10.373 0.320181 9.10803 0 7.82732 0C5.73655 0 3.77087 0.816128 2.2926 2.29849C0.814502 3.78033 0 5.75093 0 7.84658C0 9.18058 0.342481 10.492 0.984717 11.6505C0.854492 12.4014 0.78562 13.1687 0.78562 13.9348C0.78562 15.7243 1.13511 17.4597 1.82554 19.094C2.49067 20.673 3.44395 22.0894 4.65784 23.3066C5.87275 24.5236 7.28574 25.4802 8.86125 26.1461C10.4909 26.8387 12.223 27.1892 14.0077 27.1892C14.7846 27.1892 15.5632 27.1181 16.3234 26.9829C17.4944 27.6471 18.8202 28 20.174 28C22.2643 28 24.2291 27.1854 25.7076 25.7024C27.1862 24.2214 28 22.2504 28 20.1548C28 18.8163 27.6558 17.5007 27.009 16.3375ZM14.0605 22.0517C9.36335 22.0517 7.26182 19.737 7.26182 18.0019C7.26182 17.1123 7.91721 16.4884 8.82041 16.4884C10.8307 16.4884 10.3101 19.3817 14.0605 19.3817C15.9805 19.3817 17.0406 18.3367 17.0406 17.2673C17.0406 16.6241 16.7241 15.9111 15.4598 15.5988L11.282 14.5533C7.91721 13.7075 7.30676 11.884 7.30676 10.1701C7.30676 6.61142 10.6494 5.27536 13.7883 5.27536C16.6799 5.27536 20.0884 6.8773 20.0884 9.01218C20.0884 9.92698 19.2982 10.4589 18.3953 10.4589C16.6799 10.4589 16.9953 8.0787 13.5398 8.0787C11.8251 8.0787 10.8753 8.85714 10.8753 9.97084C10.8753 11.0827 12.2297 11.4378 13.4054 11.7062L16.4979 12.3944C19.8852 13.1509 20.744 15.1333 20.744 17.0006C20.7443 19.8923 18.5298 22.0517 14.0605 22.0517Z" fill="#0B7572"/>
</svg>
