<svg width="24" height="32" viewBox="0 0 24 32" fill="none" xmlns="http://www.w3.org/2000/svg">
<path d="M11.0018 6.69929L7.63781 0.871947C6.78214 -0.609722 5.2998 0.245612 5.2998 0.245612L3.2248 1.44395L8.30047 10.235L10.3755 9.03663C11.8575 8.18129 11.0018 6.69929 11.0018 6.69929ZM19.6242 31.5367L14.5485 22.7453C13.2952 23.468 12.1461 22.132 11.0895 20.699C10.3921 19.7456 9.75748 18.7553 9.19181 17.7793C8.62947 16.801 8.08914 15.7566 7.61214 14.6756C6.89947 13.0443 6.3618 11.354 7.56947 10.6566L2.4938 1.86595C0.705128 2.89862 -2.85288 8.39729 4.2208 20.649L4.22113 20.6496C11.3165 32.9387 17.8362 32.5697 19.6242 31.5367ZM23.0568 27.5787L19.6928 21.752C18.8368 20.27 17.3548 21.1256 17.3548 21.1256L15.2795 22.3237L20.3555 31.115L22.4305 29.917C23.9125 29.061 23.0568 27.5787 23.0568 27.5787Z" fill="#0B7572"/>
</svg>
