<svg width="33" height="19" viewBox="0 0 33 19" fill="none" xmlns="http://www.w3.org/2000/svg">
<path d="M27.3841 10.8951C26.8506 10.2301 27.0032 9.93429 27.3841 9.33986C27.3909 9.33307 31.7952 3.32636 32.249 1.28929L32.2517 1.28793C32.4772 0.545571 32.2517 0 31.1613 0H27.5532C26.6347 0 26.2112 0.468214 25.9843 0.992071C25.9843 0.992071 24.1472 5.33221 21.5484 8.14557C20.7096 8.9585 20.3218 9.21907 19.8639 9.21907C19.6384 9.21907 19.2878 8.9585 19.2878 8.21614V1.28793C19.2878 0.397643 19.0307 0 18.2703 0H12.5968C12.0207 0 11.6783 0.415286 11.6783 0.802072C11.6783 1.64621 12.9777 1.84029 13.1125 4.21529V9.36836C13.1125 10.4975 12.9048 10.7051 12.4442 10.7051C11.2176 10.7051 8.24066 6.34736 6.47647 1.35986C6.12034 0.392214 5.77245 0.00135704 4.84704 0.00135704H1.23754C0.207632 0.00135704 0 0.469571 0 0.993428C0 1.919 1.22654 6.52107 5.7037 12.6011C8.68755 16.7512 12.8897 19 16.7123 19C19.01 19 19.2905 18.5006 19.2905 17.6415C19.2905 13.6759 19.0829 13.3014 20.2338 13.3014C20.7673 13.3014 21.6859 13.5619 23.8309 15.5637C26.2827 17.9374 26.6856 19 28.0578 19H31.666C32.6945 19 33.2156 18.5006 32.9159 17.5153C32.2297 15.4429 27.5931 11.1801 27.3841 10.8951Z" fill="#BFBFC7"/>
</svg>
