<svg width="28" height="28" viewBox="0 0 28 28" fill="none" xmlns="http://www.w3.org/2000/svg">
<path fill-rule="evenodd" clip-rule="evenodd" d="M14 0C6.26179 0 0 6.2583 0 14C0 16.9196 0.890352 19.6202 2.47188 21.9406C2.53074 22.0279 2.56918 22.1273 2.58433 22.2314C2.59948 22.3356 2.59095 22.4418 2.55938 22.5422L1.1375 27.3L5.79688 25.6922C5.89647 25.659 6.00225 25.6487 6.10638 25.6619C6.21051 25.6752 6.31032 25.7117 6.39844 25.7687C8.58088 27.1848 11.1935 28 14 28C21.7419 28 28 21.7419 28 14C28 6.25809 21.7419 0 14 0ZM8.26875 6.10313L10.8172 10.3141L9.75625 11.3641C9.64824 11.4731 9.57902 11.6145 9.55926 11.7667C9.5395 11.9188 9.57028 12.0733 9.64687 12.2063C11.2659 15.01 13.1842 17.1912 15.8703 18.375C15.999 18.4322 16.142 18.4492 16.2805 18.4238C16.4191 18.3985 16.5468 18.3319 16.6469 18.2328L17.7734 17.1062L21.8859 19.6766C21.4306 20.7015 20.8369 21.3117 20.1578 21.6672C19.3712 22.0791 18.4105 22.157 17.3141 21.9297C15.1213 21.475 12.4726 19.7516 10.3141 17.5437C8.15557 15.3359 6.4852 12.6512 6.05937 10.4672C5.84646 9.37517 5.94052 8.43472 6.34375 7.68908C6.69094 7.04708 7.28069 6.49744 8.26875 6.10313Z" fill="#0B7572"/>
</svg>
