<svg width="145" height="52" viewBox="0 0 145 52" fill="none" xmlns="http://www.w3.org/2000/svg">
<path fill-rule="evenodd" clip-rule="evenodd" d="M9.87037 0L7.40123 6.76343H41.6179L44.087 0H9.87037ZM6.1659 10.1436L3.69677 16.9055H37.9134L40.3825 10.1436H6.1659ZM2.46913 20.2872L0 27.0491H34.2166L36.6842 20.2872H2.46913Z" fill="#009FDF"/>
<mask id="mask0_18_513" style="mask-type:alpha" maskUnits="userSpaceOnUse" x="51" y="10" width="94" height="42">
<path d="M51.3359 51.7042H145V10.2739H51.3359V51.7042Z" fill="white"/>
</mask>
<g mask="url(#mask0_18_513)">
<path fill-rule="evenodd" clip-rule="evenodd" d="M72.7425 29.6268V29.7695C74.3062 30.3434 75.7999 31.3471 76.5825 31.9916C79.0004 33.9989 80.0678 36.6506 80.0678 40.0912C80.0678 45.7555 77.0804 49.8406 72.173 51.1312C70.6793 51.5609 69.1156 51.7051 66.1982 51.7051H51.3359V10.2739H64.4929C67.1956 10.2739 69.044 10.4166 70.6793 10.8463C75.4451 12.1369 78.5741 15.4348 78.5741 20.6662C78.5741 23.4623 77.5783 25.8287 75.943 27.4047C75.232 28.1213 74.2362 28.9823 72.7425 29.6268ZM59.5855 33.9989V44.8945H65.2755C66.9809 44.8945 68.5461 44.7518 69.6851 43.6761C70.8225 42.6003 71.3204 41.2391 71.3204 39.4467C71.3204 38.0855 70.964 36.7949 70.253 35.8634C69.044 34.358 67.5503 33.9989 64.9908 33.9989H59.5855ZM59.5139 26.8307H64.1366C65.5587 26.8307 66.2698 26.8307 66.9809 26.6159C68.9024 26.0419 70.1114 24.3232 70.1114 21.9568C70.1114 19.1623 68.8309 17.9423 66.9809 17.3699C66.1982 17.1551 65.4171 17.0829 63.8519 17.0829H59.5139V26.8307ZM92.4422 51.7051V17.2256H80.5657V10.2739H113.566L111.219 17.2256H100.692V51.7051H92.4422ZM116.125 51.7051V10.2739H142.867L140.521 17.2256H124.305V26.401H130.919C136.253 26.401 139.027 27.6917 140.947 29.3398C142.441 30.6304 145 33.497 145 39.1613C145 44.7518 142.369 47.8333 140.164 49.4109C137.605 51.2017 134.902 51.7051 129.425 51.7051H116.125ZM124.305 44.7518H130.493C132.839 44.7518 134.261 44.1779 135.257 42.8873C135.755 42.2428 136.466 41.0948 136.466 38.9449C136.466 36.7949 135.755 35.2895 134.333 34.2137C133.48 33.5692 132.341 33.2116 130.421 33.2116H124.305V44.7518Z" fill="#0A2973"/>
</g>
</svg>
