<svg width="150" height="72" viewBox="0 0 150 72" fill="none" xmlns="http://www.w3.org/2000/svg">
<path d="M46.2563 47.0737H55.761V50.1793H51.2395V71.9999H46.2563V47.0737Z" fill="#0079C2"/>
<path d="M61.3962 62.6424L62.2502 50.1793H62.5362L63.3903 62.6424H61.3962ZM55.8777 71.9999H60.7567L61.2184 65.3802H63.568L64.0318 71.9999H68.9088L66.3099 47.0737H58.4765L55.8777 71.9999Z" fill="#0079C2"/>
<path d="M76.0453 63.2758V67.975C76.0453 68.6083 76.5356 68.7922 76.8217 68.7922C77.2916 68.7922 77.6185 68.404 77.6185 67.975V62.1725C77.6185 61.3961 77.4755 60.538 75.6162 60.538H73.5935V57.8002H75.6979C77.1077 57.8002 77.6185 57.4733 77.6185 55.9409V50.9965C77.6185 50.5675 77.2916 50.1793 76.8217 50.1793C76.5356 50.1793 76.0453 50.3428 76.0453 50.9965V55.0624H71.0601V51.5278C71.0601 49.7911 71.2644 47.0737 74.7581 47.0737H78.8852C82.379 47.0737 82.6037 49.7911 82.6037 51.5278V55.5119C82.6037 58.2292 80.7036 58.9647 79.2121 58.9035V59.1486C82.5629 59.0669 82.6037 61.6413 82.6037 62.5198V67.5459C82.6037 69.303 82.379 71.9999 78.8852 71.9999H74.7581C71.2644 71.9999 71.0601 69.303 71.0601 67.5459V63.2758H76.0453Z" fill="#0079C2"/>
<path d="M85.873 47.0737H97.4167V71.9999H92.4315V50.1793H90.8583V71.9999H85.873V47.0737Z" fill="#0079C2"/>
<path d="M105.671 60.7831V50.1793H106.325C106.856 50.1793 107.244 50.6288 107.244 51.4256V59.5368C107.244 60.3337 106.856 60.7831 106.325 60.7831H105.671ZM100.686 71.9999H105.671V63.5209H108.531C112.004 63.5209 112.229 60.824 112.229 59.0669V51.5278C112.229 49.7911 112.004 47.0737 108.531 47.0737H100.686V71.9999Z" fill="#0079C2"/>
<path d="M122.057 67.975C122.057 68.404 121.73 68.7922 121.26 68.7922C120.974 68.7922 120.484 68.6083 120.484 67.975V50.9965C120.484 50.3428 120.974 50.1793 121.26 50.1793C121.73 50.1793 122.057 50.5675 122.057 50.9965V67.975ZM115.498 67.5459C115.498 69.303 115.723 71.9999 119.196 71.9999H123.344C126.817 71.9999 127.042 69.303 127.042 67.5459V51.5278C127.042 49.7911 126.817 47.0737 123.344 47.0737H119.196C115.723 47.0737 115.498 49.7911 115.498 51.5278V67.5459Z" fill="#0079C2"/>
<path d="M143.264 47.0737H149.761V71.9999H144.776V56.37H144.592L142.018 71.9999H138.034L135.48 56.37H135.296V71.9999H130.311V47.0737H136.787L140.036 64.6038L143.264 47.0737Z" fill="#0079C2"/>
<path d="M39.7963 12.9943C38.2701 6.31327 34.4454 0.878547 33.9182 0C33.0846 1.24631 30.0342 6.04766 28.4835 11.3598C26.7897 17.3053 26.5405 22.5766 27.1248 27.7457C27.7051 32.9352 29.8973 38.2678 29.8973 38.2678C31.0619 41.0465 32.8068 44.0499 33.9427 45.5209C35.6079 43.3552 39.4347 36.8989 40.6279 28.4812C41.2919 23.782 41.3205 19.6753 39.7963 12.9943ZM33.9182 43.8456C33.1684 42.4358 32.0038 39.7593 31.8935 35.5913C31.8649 31.5868 33.4728 28.1339 33.9427 27.4188C34.3616 28.1339 35.7468 31.1373 35.9123 35.244C36.0247 39.2485 34.6926 42.4154 33.9182 43.8456ZM39.3529 24.3337C39.2957 26.8876 38.9913 29.5845 38.6031 31.1986C38.742 28.42 38.409 24.5176 37.7716 21.4529C37.1341 18.4086 35.33 13.3008 33.8896 10.9512C32.5595 13.1986 30.9209 17.6118 30.0628 21.4324C29.2006 25.2531 29.1761 29.891 29.1761 31.2803C28.9473 30.1157 28.3752 25.9273 28.5366 21.7389C28.6715 18.286 29.4805 14.7105 29.9239 13.076C31.6156 7.62088 33.53 4.12712 33.8896 3.57547C34.2492 4.12712 36.6601 8.43812 37.9105 12.9534C39.1548 17.4688 39.4061 21.8002 39.3529 24.3337Z" fill="#0079C2"/>
<path d="M36.5067 47.0738H24.9037V54.8581C24.9139 54.8581 24.9221 54.8377 24.9323 54.8377C27.666 52.0999 32.0996 52.0999 34.8354 54.8377C37.5691 57.5551 37.5691 61.9887 34.8354 64.7265C34.8231 64.7469 34.8109 64.7469 34.7986 64.7673C34.7843 64.7673 34.77 64.7878 34.7577 64.8082C32.0302 67.5051 28.4669 68.8536 24.9037 68.8536C21.3242 68.8536 17.7446 67.5051 15.015 64.7673C10.2013 59.966 9.63132 52.5085 13.3008 47.0738C13.7952 46.3383 14.3653 45.6436 15.015 44.9898C17.7446 42.252 21.3242 40.9035 24.9037 40.9035V22.1885C11.1494 22.1885 0 33.3235 0 47.0738C0 60.8241 11.1494 71.9796 24.9037 71.9796C32.0751 71.9796 38.5355 68.9353 43.0794 64.0931V47.0738H36.5067Z" fill="#0079C2"/>
</svg>
