<svg width="182" height="50" viewBox="0 0 182 50" fill="none" xmlns="http://www.w3.org/2000/svg">
<path d="M48.0347 1.26562H0V49.2742H48.0347V1.26562Z" fill="#ED1A3A"/>
<path d="M40.277 6.04733C39.1732 6.04733 38.3372 6.77929 37.9207 7.65889L31.8725 17.6108C31.4531 18.5311 31.147 19.5652 31.147 20.2496C31.147 20.8613 31.2309 21.4016 31.4552 21.8997L37.9977 37.5209H12.5916C11.677 37.5209 10.9222 36.6028 10.9222 35.7553V8.8467C10.73 5.16807 5.43999 5.17005 5.32349 8.96227L5.43906 37.5209C5.43906 40.6258 7.84068 43.1132 10.9222 43.1132H45.5612L37.1181 21.5209C36.8851 20.717 36.7813 19.988 37.3493 19.0297L42.9351 9.95103C43.0138 9.76171 43.1278 8.96122 43.1278 8.73113C43.0171 7.08259 41.7246 5.97452 40.277 6.04733ZM26.5627 6.06017C25.204 6.06927 23.8468 7.00738 23.8468 8.8467V28.102C23.8468 30.8981 20.0844 30.668 20.0844 28.102V8.8467C20.0844 5.16807 14.6397 5.16807 14.6397 8.8467V28.2561C14.6397 32.6949 17.956 35.6461 21.9142 35.6461C25.9802 35.6461 29.285 32.6949 29.285 28.2561V8.8467C29.285 6.97098 27.9214 6.05107 26.5627 6.06017Z" fill="white"/>
<path d="M57.4451 6.90674V19.6086C57.4451 22.7834 57.1218 24.5484 54.5354 24.5484C54.0519 24.5484 53.7286 24.5484 53.2451 24.3737V29.8406C54.2121 30.196 54.8587 30.196 55.6684 30.196C62.9383 30.196 63.2616 24.7261 63.2616 21.5484V12.3766H67.4616V29.8406H73.2751V6.90674H57.4451Z" fill="black"/>
<path d="M75.2151 6.90674L83.1316 23.4911L80.2248 29.8406H86.5248L95.8946 6.90674H89.5946L86.2014 16.6086L82.1617 6.90674H75.2151Z" fill="black"/>
<path d="M97.6716 29.8406H103.488V19.9611L109.465 29.8406H116.895L108.658 18.0213L116.735 6.90674H109.788L103.488 16.6086V6.90674H97.6716V29.8406Z" fill="black"/>
<path d="M126.428 30.5477C134.181 30.5477 137.734 24.5477 137.734 18.373C137.734 12.3759 134.181 6.37598 126.428 6.37598C118.834 6.37598 115.281 12.3759 115.281 18.373C115.281 24.5477 118.834 30.5477 126.428 30.5477ZM126.428 25.0778C123.841 25.0778 121.258 22.7827 121.258 18.373C121.258 13.9633 123.841 11.8459 126.428 11.8459C129.174 11.8459 131.758 13.9633 131.758 18.373C131.758 22.7827 129.174 25.0778 126.428 25.0778Z" fill="black"/>
<path d="M140.645 6.90715V29.841H146.298L154.375 16.0819V29.841H160.031V6.90715H154.375L146.298 20.6692V6.90715H140.645ZM150.498 5.67221C152.921 5.67221 155.344 4.78969 156.477 2.14212L153.084 0.732422C152.598 2.49746 151.144 2.67222 150.498 2.67222C150.014 2.67222 148.398 2.49746 148.075 0.732422L144.684 2.14212C145.651 4.78969 148.238 5.67221 150.498 5.67221Z" fill="black"/>
<path d="M166.17 6.90674V19.6086C166.17 22.7834 165.844 24.5484 163.26 24.5484C162.777 24.5484 162.453 24.5484 161.967 24.3737V29.8406C162.937 30.196 163.584 30.196 164.39 30.196C171.66 30.196 171.983 24.7261 171.983 21.5484V12.3766H176.183V29.8406H182V6.90674H166.17Z" fill="black"/>
<path d="M53.2922 42.7113H54.1107V38.456H58.8903V42.7113H59.7087V34.3696H58.8903V37.7861H54.1107V34.3696H53.2922V42.7113Z" fill="black"/>
<path d="M61.7908 42.7113H66.2733V42.0414H62.6092V38.3745H66.1276V37.7046H62.6092V35.0424H66.2733V34.3696H61.7908V42.7113Z" fill="black"/>
<path d="M71.6678 42.7114H72.4775V41.5638H72.8183C75.5153 41.5638 76.6309 39.9677 76.6309 38.2958C76.6309 36.3386 75.1833 35.0425 72.8183 35.0425H72.4775V34.0405H71.6678V35.0425H71.3387C68.9591 35.0425 67.5144 36.3386 67.5144 38.2958C67.5144 39.9677 68.6299 41.5638 71.3387 41.5638H71.6678V42.7114ZM72.4775 35.7124C75.1833 35.7473 75.7775 37.0114 75.7775 38.2958C75.7775 40.2997 74.4464 40.8211 72.4775 40.891V35.7124ZM71.6678 40.891C69.6989 40.8211 68.3678 40.2997 68.3678 38.2958C68.3678 37.0114 68.9591 35.7473 71.6678 35.7124V40.891Z" fill="black"/>
<path d="M79.5866 42.7113H80.373V35.0424H82.5924V34.3696H77.3701V35.0424H79.5866V42.7113Z" fill="black"/>
<path d="M83.5599 42.7113H84.4803L86.6997 39.0473H87.4046V42.7113H88.2259V34.3696H86.3007C83.7754 34.3696 83.4114 36.0444 83.4114 36.7842C83.4114 38.1939 84.5153 39.0473 85.8143 39.0007L83.5599 42.7113ZM87.4046 38.3745H86.222C85.5521 38.3745 84.2211 38.2958 84.2211 36.7026C84.2211 35.156 85.6308 35.0424 86.3007 35.0424H87.4046V38.3745Z" fill="black"/>
<path d="M90.3201 42.7113H91.1385V38.456H95.9181V42.7113H96.7365V34.3696H95.9181V37.7861H91.1385V34.3696H90.3201V42.7113Z" fill="black"/>
<path d="M97.9307 42.7115H98.752L99.8996 40.0028H103.415L104.566 42.7115H105.384L101.641 34.1543L97.9307 42.7115ZM100.197 39.3446L101.641 35.931L103.121 39.3446H100.197Z" fill="black"/>
<path d="M106.33 42.7113H107.251L109.47 39.0473H110.175V42.7113H110.994V34.3696H109.071C106.546 34.3696 106.182 36.0444 106.182 36.7842C106.182 38.1939 107.286 39.0473 108.582 39.0007L106.33 42.7113ZM110.175 38.3745H108.993C108.32 38.3745 106.989 38.2958 106.989 36.7026C106.989 35.156 108.401 35.0424 109.071 35.0424H110.175V38.3745Z" fill="black"/>
<path d="M115.855 42.7113H116.674V38.6716L120.416 42.7113H121.485L117.446 38.4094L121.418 34.3696H120.416L116.674 38.2609V34.3696H115.855V42.7113Z" fill="black"/>
<path d="M126.765 42.9737C129.247 42.9737 131.283 41.1882 131.283 38.5582C131.283 35.931 129.247 34.1543 126.765 34.1543C124.319 34.1543 122.283 35.931 122.283 38.5582C122.283 41.1882 124.319 42.9737 126.765 42.9737ZM126.765 42.2688C124.729 42.2688 123.136 40.7426 123.136 38.5582C123.136 36.3737 124.729 34.8155 126.765 34.8155C128.804 34.8155 130.429 36.3737 130.429 38.5582C130.429 40.7426 128.804 42.2688 126.765 42.2688Z" fill="black"/>
<path d="M132.41 42.7114H133.197L133.969 36.5541L137.041 43.0871L140.079 36.5541L140.901 42.7114H141.638L140.49 34.0405L137.041 41.4939L133.558 34.0405L132.41 42.7114Z" fill="black"/>
<path d="M143.175 34.3696V42.7113H143.993V35.0424H148.773V42.7113H149.592V34.3696H143.175Z" fill="black"/>
<path d="M150.789 42.7115H151.607L152.755 40.0028H156.273L157.421 42.7115H158.239L154.497 34.1543L150.789 42.7115ZM153.052 39.3446L154.497 35.931L155.976 39.3446H153.052Z" fill="black"/>
<path d="M159.401 42.7113H160.22V38.456H164.999V42.7113H165.821V34.3696H164.999V37.7861H160.22V34.3696H159.401V42.7113Z" fill="black"/>
<path d="M167.9 34.3697V43.0871L173.615 36.1114V42.7114H174.422V34.0405L168.722 40.9696V34.3697H167.9Z" fill="black"/>
<path d="M176.265 42.7113H177.185L179.405 39.0473H180.11V42.7113H180.931V34.3696H179.009C176.481 34.3696 176.116 36.0444 176.116 36.7842C176.116 38.1939 177.22 39.0473 178.519 39.0007L176.265 42.7113ZM180.11 38.3745H178.927C178.257 38.3745 176.926 38.2958 176.926 36.7026C176.926 35.156 178.336 35.0424 179.009 35.0424H180.11V38.3745Z" fill="black"/>
</svg>
