<svg width="77" height="94" viewBox="0 0 77 94" fill="none" xmlns="http://www.w3.org/2000/svg">
<path d="M65.1514 11.846C58.3305 5.02584 48.9108 0.808998 38.5008 0.808594C28.0899 0.808998 18.6703 5.02584 11.8491 11.846C5.02812 18.6672 0.811279 28.087 0.811279 38.4977C0.811279 48.9083 5.02812 58.3278 11.8489 65.1488C18.6703 71.9695 28.0899 76.1862 38.5002 76.1866C48.9104 76.1862 58.3303 71.9689 65.1512 65.1488C71.9724 58.3272 76.1886 48.9077 76.189 38.4977C76.1893 28.087 71.9726 18.6672 65.1514 11.846Z" fill="white"/>
<path d="M0 38.5015C0.000404494 17.2359 17.2375 0 38.4999 0V0.404494V0.808987C28.0911 0.808987 18.6708 5.02684 11.8486 11.8482C5.02725 18.67 0.809392 28.0907 0.808785 38.5013C0.809392 48.9104 5.02725 58.33 11.8486 65.1516C18.6708 71.973 28.0911 76.1902 38.4999 76.1902C48.9087 76.1902 58.329 71.9726 65.1512 65.1516C71.9728 58.33 76.1906 48.9101 76.1906 38.5013C76.1906 28.0907 71.9728 18.67 65.1512 11.8482C58.329 5.02684 48.9087 0.808987 38.4999 0.808987V0.404494V0C59.7625 0 76.9996 17.2359 77 38.5015C76.9996 59.7635 59.7625 76.9998 38.4999 77C17.2375 76.9998 0.000404494 59.7635 0 38.5015Z" fill="#C5C9CC"/>
<path d="M38.5008 27.5096L38.7609 27.437C25.8144 31.4548 15.5704 38.3385 15.3607 43.3936C15.1354 48.8045 26.4891 50.0738 40.7134 46.2299C54.937 42.3858 66.6547 34.8807 66.8798 29.4701C66.9959 26.6662 64.0011 24.975 59.1099 24.5303C65.0881 24.7976 68.8319 26.5394 68.8319 29.651C68.8319 35.5796 55.249 44.236 38.5004 48.9835C21.7515 53.7301 8.16821 52.7706 8.16821 46.8417C8.16882 40.9135 21.7519 32.2563 38.5008 27.5096Z" fill="#A0A4A7"/>
<path d="M14.1113 58.6843L56.1609 18.3169L52.3483 50.0498L45.3961 42.0886L14.1113 58.6843Z" fill="#E63F3F"/>
<path d="M2.70775 88.4527C3.4504 88.4527 3.97463 88.3364 4.28022 88.0743C4.58602 87.8265 4.7464 87.4042 4.7464 86.822C4.7464 85.7155 4.04723 85.1621 2.63494 85.1621H1.87753V88.4529H2.70775V88.4527ZM2.67843 89.1371H1.87753V92.9084H1.10596V84.4771H2.56193C3.49388 84.4771 4.22218 84.6519 4.77532 85.0159C5.31411 85.3656 5.57622 85.9628 5.57622 86.7635C5.57622 87.6953 5.31411 88.3073 4.77532 88.6418C4.23653 88.9767 3.53757 89.1371 2.67843 89.1371ZM10.8478 92.4719C11.5465 92.4719 12.1581 92.3116 12.726 91.9768C13.2942 91.6565 13.731 91.2055 14.0514 90.6517C14.3863 90.0836 14.5463 89.4579 14.5463 88.7587C14.5463 88.1473 14.4154 87.565 14.1385 86.9824C13.8617 86.3997 13.4396 85.9193 12.8864 85.5405C12.3331 85.1621 11.663 84.9726 10.8767 84.9726C10.3236 84.9726 9.75544 85.1037 9.17297 85.3806C8.60506 85.657 8.12432 86.0793 7.74592 86.6474C7.36711 87.2157 7.17781 87.9145 7.17781 88.7006C7.17781 89.3707 7.32363 89.9966 7.62922 90.5648C7.94958 91.1327 8.38644 91.5984 8.95434 91.9338C9.52246 92.2968 10.1486 92.4719 10.8478 92.4719ZM10.8478 93.1272C10.0612 93.1272 9.31859 92.9523 8.63439 92.6174C7.93543 92.2679 7.38208 91.7582 6.97435 91.0884C6.56662 90.4183 6.34819 89.6176 6.34819 88.6855C6.34819 87.797 6.56662 87.0256 7.00347 86.3556C7.42576 85.7003 7.99367 85.1904 8.7072 84.8262C9.40596 84.4624 10.1486 84.2874 10.9058 84.2874C11.5759 84.2874 12.1729 84.4039 12.7115 84.6371C13.2503 84.8555 13.7164 85.1759 14.1094 85.5836C14.5173 85.9766 14.8231 86.4573 15.0414 86.9961C15.2598 87.5642 15.3617 88.1315 15.3617 88.7437C15.3617 89.617 15.1724 90.389 14.7647 91.0588C14.357 91.7287 13.8036 92.2383 13.1192 92.588C12.4348 92.9523 11.6776 93.1272 10.8478 93.1272ZM20.8369 84.9726C20.1087 84.9726 19.4536 85.1326 18.9148 85.4386C18.3614 85.7448 17.9537 86.1813 17.6625 86.7344C17.3567 87.3173 17.2111 87.9724 17.2111 88.7152C17.2111 89.8656 17.546 90.7832 18.2013 91.4524C18.8565 92.1225 19.7305 92.4576 20.808 92.4576C21.7398 92.4576 22.6426 92.1227 23.5018 91.4524V92.3411C23.1086 92.5888 22.6863 92.7634 22.2349 92.8942C21.7543 93.0398 21.2738 93.0983 20.7641 93.0983C20.0943 93.0983 19.4247 92.9818 18.7694 92.7338C18.1141 92.4865 17.546 92.0353 17.08 91.38C16.5995 90.7393 16.3665 89.8656 16.3665 88.7587C16.3665 87.958 16.5269 87.2153 16.8327 86.5305C17.1237 85.8605 17.619 85.3221 18.2886 84.9142C18.9732 84.4919 19.8324 84.288 20.8515 84.288C21.7982 84.288 22.7156 84.5791 23.5748 85.1911L23.5454 86.0211C23.2251 85.7588 22.861 85.5112 22.4387 85.2928C22.0019 85.0744 21.4777 84.9726 20.8369 84.9726ZM24.8269 92.9088V84.4775H25.5986V88.4242L29.3993 84.4775H30.404L26.4141 88.5261L30.6077 92.9092H29.501L25.5984 88.6422V92.9092L24.8269 92.9088ZM35.7628 92.4719C36.4474 92.4719 37.0733 92.3116 37.6412 91.9768C38.1942 91.6565 38.6456 91.2055 38.9659 90.6517C39.2863 90.0836 39.4612 89.4579 39.4612 88.7587C39.4612 88.1473 39.3154 87.565 39.0531 86.9824C38.7621 86.3997 38.3544 85.9193 37.801 85.5405C37.2329 85.1621 36.578 84.9726 35.7915 84.9726C35.2234 84.9726 34.6557 85.1037 34.0878 85.3806C33.5051 85.657 33.0247 86.0793 32.6459 86.6474C32.2675 87.2157 32.078 87.9145 32.078 88.7006C32.078 89.3707 32.2382 89.9966 32.544 90.5648C32.8498 91.1327 33.2867 91.5984 33.8693 91.9338C34.4231 92.2968 35.0638 92.4719 35.7628 92.4719ZM35.7628 93.1272C34.9764 93.1272 34.2336 92.9523 33.5496 92.6174C32.8504 92.2679 32.2973 91.7582 31.8893 91.0884C31.467 90.4183 31.2632 89.6176 31.2632 88.6855C31.2632 87.797 31.4816 87.0256 31.9039 86.3556C32.3407 85.7003 32.9089 85.1904 33.6076 84.8262C34.3211 84.4624 35.0494 84.2874 35.821 84.2874C36.4908 84.2874 37.0881 84.4039 37.6267 84.6371C38.1655 84.8555 38.631 85.1759 39.0246 85.5836C39.4176 85.9766 39.7234 86.4573 39.9418 86.9961C40.1602 87.5642 40.2767 88.1315 40.2767 88.7437C40.2767 89.617 40.0728 90.389 39.6653 91.0588C39.2578 91.7287 38.7188 92.2383 38.0346 92.588C37.3498 92.9523 36.5928 93.1272 35.7628 93.1272ZM45.7519 84.9726C45.0093 84.9726 44.3686 85.1326 43.8154 85.4386C43.2766 85.7448 42.8543 86.1813 42.5635 86.7344C42.2721 87.3173 42.1267 87.9724 42.1267 88.7152C42.1267 89.8656 42.447 90.7832 43.1169 91.4524C43.7715 92.1225 44.6307 92.4576 45.7082 92.4576C46.655 92.4576 47.558 92.1227 48.4171 91.4524L48.4028 92.3411C48.0098 92.5888 47.5875 92.7634 47.1357 92.8942C46.6693 93.0398 46.1746 93.0983 45.6652 93.0983C45.0099 93.0983 44.3396 92.9818 43.67 92.7338C43.0147 92.4865 42.4614 92.0353 41.9956 91.38C41.5149 90.7393 41.2823 89.8656 41.2823 88.7587C41.2823 87.958 41.4277 87.2153 41.7333 86.5305C42.0395 85.8605 42.5198 85.3221 43.2042 84.9142C43.8739 84.4919 44.733 84.288 45.7671 84.288C46.7136 84.288 47.6162 84.5791 48.4754 85.1911L48.4612 86.0211C48.1409 85.7588 47.7621 85.5112 47.3398 85.2928C46.9175 85.0744 46.3781 84.9726 45.7519 84.9726ZM53.659 93.2144L50.7031 86.4721L50.0624 92.9084H49.2759L50.4263 84.1133L53.659 91.627L57.0084 84.1133L58.1005 92.9084H57.2994L56.688 86.4721L53.659 93.2144ZM63.1824 92.4719C63.867 92.4719 64.4929 92.3116 65.0465 91.9768C65.6142 91.6565 66.051 91.2055 66.3859 90.6517C66.7063 90.0836 66.8667 89.4579 66.8667 88.7587C66.8667 88.1473 66.7356 87.565 66.459 86.9824C66.1821 86.3997 65.7598 85.9193 65.2064 85.5405C64.6531 85.1621 63.9835 84.9726 63.1969 84.9726C62.6436 84.9726 62.0755 85.1037 61.5078 85.3806C60.9251 85.657 60.4447 86.0793 60.0659 86.6474C59.6875 87.2157 59.498 87.9145 59.498 88.7006C59.498 89.3707 59.6437 89.9966 59.964 90.5648C60.2698 91.1327 60.7067 91.5984 61.2744 91.9338C61.8429 92.2968 62.469 92.4719 63.1824 92.4719ZM63.1824 93.1272C62.3817 93.1272 61.6532 92.9523 60.9544 92.6174C60.2698 92.2679 59.7165 91.7582 59.2942 91.0884C58.8864 90.4183 58.6828 89.6176 58.6828 88.6855C58.6828 87.797 58.8866 87.0256 59.3235 86.3556C59.7603 85.7003 60.3285 85.1904 61.0272 84.8262C61.7264 84.4624 62.469 84.2874 63.2262 84.2874C63.8959 84.2874 64.5077 84.4039 65.0319 84.6371C65.5707 84.8555 66.0365 85.1759 66.4444 85.5836C66.8374 85.9766 67.1432 86.4573 67.3616 86.9961C67.58 87.5642 67.6965 88.1315 67.6965 88.7437C67.6965 89.617 67.4926 90.389 67.0851 91.0588C66.677 91.7289 66.1382 92.2383 65.4394 92.588C64.7548 92.9523 63.9976 93.1272 63.1824 93.1272ZM73.1717 84.9726C72.4291 84.9726 71.7884 85.1326 71.235 85.4386C70.6962 85.7448 70.2739 86.1813 69.9833 86.7344C69.6919 87.3173 69.5319 87.9724 69.5319 88.7152C69.5319 89.8656 69.8668 90.7832 70.5221 91.4524C71.1917 92.1225 72.0509 92.4576 73.1285 92.4576C74.0602 92.4576 74.9632 92.1227 75.8371 91.4524L75.8226 92.3411C75.4296 92.5888 75.0073 92.7634 74.5557 92.8942C74.0895 93.0398 73.5946 93.0983 73.0852 93.0983C72.4151 93.0983 71.7598 92.9818 71.09 92.7338C70.4347 92.4865 69.867 92.0353 69.4008 91.38C68.9347 90.7393 68.6875 89.8656 68.6875 88.7587C68.6875 87.958 68.8475 87.2153 69.1533 86.5305C69.4595 85.8605 69.9402 85.3221 70.6242 84.9142C71.2939 84.4919 72.153 84.288 73.1871 84.288C74.1336 84.288 75.0362 84.5791 75.8954 85.1911L75.8665 86.0211C75.5603 85.7588 75.1819 85.5112 74.7596 85.2928C74.3373 85.0744 73.7979 84.9726 73.1717 84.9726Z" fill="#A0A4A7" stroke="#A0A4A7" stroke-width="0.216" stroke-miterlimit="2.4142"/>
</svg>
